<svg width="124" height="32" viewBox="0 0 124 32" fill="none" xmlns="http://www.w3.org/2000/svg">
<path d="M2.51562 29.2969C2.14062 29.25 1.8125 29.1094 1.53125 28.875C1.20312 26.8359 1.00391 24.7617 0.933594 22.6523C0.863281 20.543 0.804688 18.4336 0.757812 16.3242C0.664062 15.3867 0.828125 14.5664 1.25 13.8633C1.57812 13.582 2 13.4648 2.51562 13.5117L3.21875 13.8633C3.54688 14.332 3.66406 14.8711 3.57031 15.4805H3.71094C4.60156 14.6367 5.70312 14.2852 7.01562 14.4258C7.625 14.6133 8.17578 14.918 8.66797 15.3398V15.4102H8.80859L8.87891 15.2695C9.39453 14.8008 9.98047 14.543 10.6367 14.4961C11.293 14.4492 11.9727 14.4492 12.6758 14.4961C13.1914 14.5898 13.6602 14.8477 14.082 15.2695L14.293 15.6914H14.4336C14.8555 16.3008 15.1719 16.957 15.3828 17.6602C15.5938 18.3633 15.7227 19.1133 15.7695 19.9102V25.5352C15.8633 26.7305 15.6758 27.8203 15.207 28.8047C14.8789 29.0859 14.457 29.2031 13.9414 29.1562L13.2383 28.8047C13.0039 28.4297 12.8633 28.0312 12.8164 27.6094L13.0273 25.2539V20.1211C13.0273 19.043 12.7461 18.082 12.1836 17.2383H10.7773V17.3789L10.4961 17.6602H10.3555L10.0742 18.1523V23.0742L10.2852 28.1719L9.93359 28.875C9.60547 29.1562 9.18359 29.2734 8.66797 29.2266L7.92969 28.875C7.46094 27.0469 7.23828 25.125 7.26172 23.1094C7.28516 21.0703 7.03906 19.1133 6.52344 17.2383L6.10156 17.168L5.1875 17.8711C4.71875 18.8555 4.41406 19.9102 4.27344 21.0352C4.13281 22.1602 4.01562 23.2852 3.92188 24.4102V28.1719L3.57031 28.875C3.24219 29.1094 2.89062 29.25 2.51562 29.2969ZM26.1758 29.5078L25.4375 29.1562C25.1094 28.3125 24.9453 27.4102 24.9453 26.4492C24.9453 25.4648 24.8516 24.5273 24.6641 23.6367V19.6289L24.5938 16.957L24.7344 15.6211V11.4023C24.7812 11.0273 24.9219 10.6992 25.1562 10.418C25.4844 10.1367 25.918 10.0195 26.457 10.0664L27.1602 10.418L27.5117 11.1211V15.9023L27.3711 19.2773L27.4414 19.3477V23.3555C27.582 24.1523 27.6758 24.9961 27.7227 25.8867C27.7695 26.7539 27.793 27.6094 27.793 28.4531L27.4414 29.1562C27.1133 29.4375 26.6914 29.5547 26.1758 29.5078ZM25.7891 5.95312C25.3203 5.85938 24.8984 5.64844 24.5234 5.32031C24.1484 4.85156 23.9844 4.3125 24.0312 3.70312C24.125 3.28125 24.3125 2.90625 24.5938 2.57812C25.1094 2.10937 25.7539 1.94531 26.5273 2.08594L27.582 2.64844C28.0039 3.16406 28.1445 3.77344 28.0039 4.47656L27.5117 5.39062C26.9961 5.71875 26.4219 5.90625 25.7891 5.95312ZM43.0156 28.875C42.3594 28.8281 41.7734 28.6523 41.2578 28.3477C40.7422 28.043 40.2266 27.6797 39.7109 27.2578C39.2891 26.7422 38.9375 26.2031 38.6562 25.6406C38.375 25.0547 38.1875 24.457 38.0938 23.8477V20.1914C38.3281 19.3945 38.5742 18.5859 38.832 17.7656C39.0898 16.9453 39.5 16.207 40.0625 15.5508C40.7656 14.9883 41.5508 14.6016 42.418 14.3906C43.2852 14.1797 44.1992 14.0742 45.1602 14.0742C45.8164 14.2617 46.4609 14.4492 47.0938 14.6367C47.7266 14.8242 48.3242 15.082 48.8867 15.4102C49.7305 16.207 50.4336 17.0742 50.9961 18.0117L51.0664 18.8555L50.7148 19.5586C50.3867 19.8398 49.9648 19.957 49.4492 19.9102L48.7461 19.5586C48.3242 18.668 47.6914 17.9648 46.8477 17.4492C46.0508 17.168 45.207 16.957 44.3164 16.8164C43.4492 16.8633 42.6641 17.1211 41.9609 17.5898C41.4922 18.5273 41.1172 19.4883 40.8359 20.4727V23.5664L41.4688 25.1133H41.6094L42.5938 25.957C43.6484 26.1211 44.7148 26.1797 45.793 26.1328C46.7773 25.9219 47.6445 25.3945 48.3945 24.5508C48.582 23.9883 48.9336 23.543 49.4492 23.2148L50.293 23.1445L50.9961 23.4961C51.2773 23.8242 51.3945 24.2461 51.3477 24.7617C51.1602 25.3242 50.9023 25.8516 50.5742 26.3438L50.1523 26.7656L49.6602 27.1875C49.1445 27.6562 48.582 28.043 47.9727 28.3477C47.3633 28.6523 46.707 28.8281 46.0039 28.875H43.0156ZM58.2734 28.7344L57.5703 28.3828C57.1953 27.6328 57.0078 26.8242 57.0078 25.957C57.0078 25.0664 56.9844 24.1758 56.9375 23.2852L57.0078 23.2148V20.4023L56.9375 20.332V16.6758L56.7266 14.5664V11.332L57.0781 10.6289C57.4062 10.3477 57.8281 10.2305 58.3438 10.2773L59.0469 10.6289C59.375 11.1914 59.5273 11.8125 59.5039 12.4922C59.4805 13.1719 59.4688 13.8398 59.4688 14.4961H59.6094C60.3125 13.5117 61.2148 12.7852 62.3164 12.3164C63.207 11.9883 64.168 11.8477 65.1992 11.8945C66.1367 11.9883 66.9805 12.3398 67.7305 12.9492L67.9414 13.1602V13.3008H68.082L68.293 13.7227H68.4336C68.9492 14.4258 69.2891 15.1992 69.4531 16.043C69.6172 16.8867 69.6758 17.7773 69.6289 18.7148L69.2773 19.418C68.9492 19.6992 68.5273 19.8164 68.0117 19.7695L67.3086 19.418C66.9805 18.7617 66.8281 18.0234 66.8516 17.2031C66.875 16.3828 66.582 15.6914 65.9727 15.1289C65.457 14.707 64.8477 14.543 64.1445 14.6367C63.4414 14.8242 62.8086 15.1523 62.2461 15.6211C61.2852 16.9805 60.6289 18.4805 60.2773 20.1211C59.9258 21.7617 59.75 23.4492 59.75 25.1836L59.8906 27.6797L59.5391 28.3828C59.2109 28.6641 58.7891 28.7812 58.2734 28.7344ZM78.2422 29.6484C77.2109 29.4609 76.2969 28.9922 75.5 28.2422L74.0234 26.4844C73.6016 25.7109 73.3438 24.8906 73.25 24.0234C73.1562 23.1562 73.1328 22.2539 73.1797 21.3164C73.2734 20.0977 73.4844 18.9258 73.8125 17.8008C74.1406 16.6758 74.7031 15.6445 75.5 14.707C76.1562 14.2383 76.8477 13.875 77.5742 13.6172C78.3008 13.3594 79.1211 13.2539 80.0352 13.3008C80.7852 13.5352 81.5352 13.7461 82.2852 13.9336C83.0352 14.1211 83.7383 14.4492 84.3945 14.918L84.4648 15.1289H84.6055C85.168 15.832 85.6367 16.5938 86.0117 17.4141C86.3867 18.2344 86.6445 19.0898 86.7852 19.9805V22.8633C86.6445 23.8008 86.375 24.6797 85.9766 25.5C85.5781 26.2969 85.0742 27.0703 84.4648 27.8203L82.6367 29.0859C81.9805 29.3672 81.2773 29.543 80.5273 29.6133C79.8008 29.6836 79.0391 29.6953 78.2422 29.6484ZM81.582 26.4844C82.5195 25.8984 83.1992 25.0898 83.6211 24.0586C83.8555 23.4961 83.9961 22.8867 84.043 22.2305C84.0898 21.5742 84.0898 20.918 84.043 20.2617C83.9492 19.6523 83.7734 19.0781 83.5156 18.5391C83.2578 18 82.9414 17.4961 82.5664 17.0273C82.0039 16.6992 81.3711 16.4883 80.668 16.3945C79.9883 16.3008 79.2969 16.207 78.5938 16.1133L77.3281 16.8164C76.7188 17.7539 76.3203 18.7734 76.1328 19.875C75.9453 20.9766 75.875 22.1367 75.9219 23.3555C75.9688 24.2461 76.2969 25.0195 76.9062 25.6758L77.0469 25.7461L77.3984 26.1328V26.2734H77.5391V26.4141C78.3359 26.9297 79.2617 27.0938 80.3164 26.9062L81.582 26.4844ZM113.012 31.4062L112.309 31.0547C111.887 30.3047 111.746 29.4375 111.887 28.4531L111.957 28.3828V24.3398L111.887 24.2695V20.6133L111.816 20.543V17.6602C111.629 15.5508 111.383 13.4648 111.078 11.4023C110.773 9.33984 110.598 7.21875 110.551 5.03906L110.902 4.33594L111.113 4.19531L111.395 3.5625C111.77 3.28125 112.215 3.16406 112.73 3.21094C114.23 3.35156 115.73 3.48047 117.23 3.59766C118.754 3.71484 120.219 3.98438 121.625 4.40625C121.953 4.875 122.07 5.46094 121.977 6.16406C121.695 7.24219 121.32 8.29687 120.852 9.32812C120.383 10.3359 119.82 11.2852 119.164 12.1758C119.914 12.457 120.617 12.8789 121.273 13.4414L121.625 13.793L121.906 14.0742L122.328 14.5664C122.984 15.5039 123.359 16.582 123.453 17.8008V20.6836C123.266 21.3867 122.961 22.0664 122.539 22.7227H122.398V22.8633C121.648 23.5664 120.734 23.918 119.656 23.918C118.766 23.6836 117.898 23.332 117.055 22.8633C116.68 22.4414 116.516 21.9492 116.562 21.3867L116.914 20.6836C117.242 20.4023 117.664 20.2852 118.18 20.332L120.078 21.1055L120.5 20.7539C120.734 19.9102 120.805 18.9961 120.711 18.0117C120.664 17.1211 120.289 16.3477 119.586 15.6914L119.445 15.6211L118.531 14.8477C117.734 14.5664 116.984 14.2148 116.281 13.793C116.023 13.4648 115.871 13.0898 115.824 12.668C116.223 11.5898 116.773 10.5938 117.477 9.67969C118.18 8.76562 118.648 7.73437 118.883 6.58594C117.992 6.44531 117.066 6.33984 116.105 6.26953C115.168 6.19922 114.23 6.14063 113.293 6.09375V6.58594C113.48 8.4375 113.703 10.2539 113.961 12.0352C114.219 13.8164 114.418 15.6211 114.559 17.4492V20.332L114.629 20.4023V24.1289L114.699 24.1992V28.5938C114.793 29.4844 114.652 30.3047 114.277 31.0547C113.949 31.3359 113.527 31.4531 113.012 31.4062ZM94.9062 30.9844L94.2031 30.6328C93.8281 29.8359 93.6172 28.9922 93.5703 28.1016V25.1133L93.6406 23.0039C93.5 22.0664 93.4531 21.1055 93.5 20.1211L93.8516 19.418C94.1797 19.1367 94.6016 19.0195 95.1172 19.0664L96.3125 19.1367L96.3828 19.0664H100.637C101.621 19.1602 102.605 19.2305 103.59 19.2773C104.574 19.3242 105.488 19.5586 106.332 19.9805C106.707 21.0117 106.895 22.1133 106.895 23.2852C106.895 24.457 106.988 25.6172 107.176 26.7656V29.5781L106.754 30.4922C105.91 30.9141 104.973 31.0547 103.941 30.9141L100.707 30.7031L100.004 30.7734L96.5234 30.1406L96.1719 30.6328C95.8438 30.9141 95.4219 31.0312 94.9062 30.9844ZM104.434 28.1719V27.0469C104.387 26.2266 104.316 25.418 104.223 24.6211C104.129 23.8242 104.105 23.0039 104.152 22.1602C103.59 22.0195 102.992 21.9492 102.359 21.9492C101.727 21.9492 101.105 21.9023 100.496 21.8086H96.3828L96.2422 22.3008C96.3828 23.2383 96.4297 24.2227 96.3828 25.2539L96.3125 27.3984C97.0156 27.4453 97.707 27.5508 98.3867 27.7148C99.0898 27.8789 99.793 27.9844 100.496 28.0312L102.324 27.9609C103.027 28.0547 103.73 28.125 104.434 28.1719ZM108.371 16.1133L108.02 15.9727H97.5078L96.3828 16.043L96.3125 15.9727H93.3594C92.9844 15.9258 92.6562 15.7852 92.375 15.5508C92.0938 15.2227 91.9766 14.8008 92.0234 14.2852L92.375 13.582C93.3125 13.207 94.3672 13.0898 95.5391 13.2305L95.6797 9.08203L95.6094 7.78125C94.7188 7.875 93.9453 7.71094 93.2891 7.28906C93.0078 6.96094 92.8906 6.53906 92.9375 6.02344L93.2891 5.32031C93.6641 4.99219 94.1328 4.875 94.6953 4.96875L94.7656 5.03906H99.3711V4.82812C99.1836 3.75 99.1133 2.60156 99.1602 1.38281L99.5117 0.679688C99.8398 0.398438 100.262 0.28125 100.777 0.328125L101.48 0.679688C101.809 1.28906 101.961 1.96875 101.938 2.71875C101.914 3.46875 101.973 4.19531 102.113 4.89844H103.168L104.996 4.75781C105.559 4.99219 106.203 5.07422 106.93 5.00391C107.656 4.93359 108.301 5.0625 108.863 5.39062C109.145 5.71875 109.262 6.14063 109.215 6.65625L108.863 7.35938C107.832 7.78125 106.684 7.92188 105.418 7.78125V8.16797C105.559 8.96484 105.664 9.79688 105.734 10.6641C105.805 11.5312 105.863 12.3867 105.91 13.2305C106.52 13.2305 107.141 13.2188 107.773 13.1953C108.406 13.1719 108.957 13.3242 109.426 13.6523C109.707 14.0273 109.824 14.4727 109.777 14.9883L109.426 15.6914C109.098 15.9258 108.746 16.0664 108.371 16.1133ZM103.168 13.2305V12.8789C103.121 11.9883 103.051 11.1094 102.957 10.2422C102.863 9.375 102.77 8.50781 102.676 7.64062H100.566L98.3867 7.78125V9.01172L98.457 10.5586L98.3164 13.2305H103.168Z" fill="black"/>
</svg>
